<svg width="19" height="22" viewBox="0 0 19 22" className="navIcons" xmlns="http://www.w3.org/2000/svg">
<path d="M16.5312 2.12557H14.9688V1.34432C14.9688 1.13712 14.8864 0.938408 14.7399 0.791895C14.5934 0.645382 14.3947 0.563072 14.1875 0.563072C13.9803 0.563072 13.7816 0.645382 13.6351 0.791895C13.4886 0.938408 13.4062 1.13712 13.4062 1.34432V2.12557H10.2812V1.34432C10.2812 1.13712 10.1989 0.938408 10.0524 0.791895C9.90592 0.645382 9.7072 0.563072 9.5 0.563072C9.2928 0.563072 9.09409 0.645382 8.94757 0.791895C8.80106 0.938408 8.71875 1.13712 8.71875 1.34432V2.12557H5.59375V1.34432C5.59375 1.13712 5.51144 0.938408 5.36493 0.791895C5.21841 0.645382 5.0197 0.563072 4.8125 0.563072C4.6053 0.563072 4.40659 0.645382 4.26007 0.791895C4.11356 0.938408 4.03125 1.13712 4.03125 1.34432V2.12557H2.46875C2.05449 2.12605 1.65734 2.29082 1.36442 2.58374C1.0715 2.87666 0.906724 3.27382 0.90625 3.68807V18.5318C0.907198 19.3603 1.23674 20.1546 1.82259 20.7405C2.40843 21.3263 3.20274 21.6559 4.03125 21.6568H14.9688C15.7973 21.6559 16.5916 21.3263 17.1774 20.7405C17.7633 20.1546 18.0928 19.3603 18.0938 18.5318V3.68807C18.0933 3.27382 17.9285 2.87666 17.6356 2.58374C17.3427 2.29082 16.9455 2.12605 16.5312 2.12557ZM12.625 15.4068H6.375C6.1678 15.4068 5.96909 15.3245 5.82257 15.178C5.67606 15.0315 5.59375 14.8328 5.59375 14.6256C5.59375 14.4184 5.67606 14.2197 5.82257 14.0731C5.96909 13.9266 6.1678 13.8443 6.375 13.8443H12.625C12.8322 13.8443 13.0309 13.9266 13.1774 14.0731C13.3239 14.2197 13.4062 14.4184 13.4062 14.6256C13.4062 14.8328 13.3239 15.0315 13.1774 15.178C13.0309 15.3245 12.8322 15.4068 12.625 15.4068ZM12.625 12.2818H6.375C6.1678 12.2818 5.96909 12.1995 5.82257 12.053C5.67606 11.9065 5.59375 11.7078 5.59375 11.5006C5.59375 11.2934 5.67606 11.0947 5.82257 10.9481C5.96909 10.8016 6.1678 10.7193 6.375 10.7193H12.625C12.8322 10.7193 13.0309 10.8016 13.1774 10.9481C13.3239 11.0947 13.4062 11.2934 13.4062 11.5006C13.4062 11.7078 13.3239 11.9065 13.1774 12.053C13.0309 12.1995 12.8322 12.2818 12.625 12.2818Z"/>
</svg>
